# xmcd
#
# Track frame offsets:
#	150
#	74302
#	108628
#	132391
#	173964
#	212162
#	244406
#	268491
#	292340
#	325175
#
# Disc length: 4795 seconds
#
# Revision: 1
# Processed by: cddbd v1.5.2PL0 Copyright (c) Steve Scherf et al.
# Submitted via: audiograbber 1.83.01
#
DISCID=af12b90a
DTITLE=Grateful Dead - 95-06-25A Robert F Kennedy Stadium, Washington DC
DYEAR=1900
DGENRE=
TTITLE0=Shakedown Street
TTITLE1=Wang Dang Doodle
TTITLE2=Jack A Roe
TTITLE3=Mama Tried > Mexicali Blues
TTITLE4=Loose Lucy
TTITLE5=Picasso Moon
TTITLE6=Box Of Rain
TTITLE7=Rain
TTITLE8=Samson and Delilah
TTITLE9=Ship Of Fools
EXTD=
EXTT0=
EXTT1=
EXTT2=
EXTT3=
EXTT4=
EXTT5=
EXTT6=
EXTT7=
EXTT8=
EXTT9=
PLAYORDER=
